<?xml version="1.0" encoding="utf-8"?>
<!-- Generator: Adobe Illustrator 21.1.0, SVG Export Plug-In . SVG Version: 6.00 Build 0)  -->
<svg version="1.1" id="Слой_1" xmlns="http://www.w3.org/2000/svg" xmlns:xlink="http://www.w3.org/1999/xlink" x="0px" y="0px"
	 viewBox="0 0 48 48" style="enable-background:new 0 0 48 48;" xml:space="preserve">
<style type="text/css">
	.st0{fill:#2C3965;}
</style>
<g>
	<g>
		<g>
			<g>
				<path class="st0" d="M24.8,21.4L24.8,21.4C24.8,21.4,24.8,21.4,24.8,21.4z"/>
			</g>
			<g>
				<path class="st0" d="M33.9,36.9c-0.1-0.2-0.1,0.2-0.2,0.6c-0.7-0.9-3-3.7-3.7-4.1c-0.7-0.5-3.4-0.5-3.4-0.5
					c-0.3,0-1.2,1.2-1.5,1.7c0,0,0,0,0,0.1c0,0,0,0,0,0.1c-0.2,0.3-0.5,0.9-0.6,1.1c-0.1,0.2,0.5-0.5,0.8-0.8c0,0,0,0,0,0
					c0.2,0.1,0.6,0.1,0.6,0c0.1-0.2,0.4-0.9,1.4-0.7c1,0.2,1.5,1.9,1.2,5.2c-0.3,3.3-2.3,3.4-3.1,2.9c-0.8-0.5-0.3-1.3,0.1-2
					c0.4-0.7-0.1-0.9-0.2-1c0-0.1,0.3-0.1,0.3-0.4c0-0.3-0.4,0-0.4-0.3c0-0.2-0.1-0.4-0.1-0.4s-2,1-3.5-0.1
					c-1.5-1.1-0.7-3.2-0.3-4.3c0.3-0.8,1.5-2.5,2-3.3c1,0.1,3-0.5,2.8-0.5c-0.8,0-2.3,0.1-2.6,0.1c0,0,0,0,0,0c-0.3,0-1-0.1-0.6-0.8
					c0.6-0.9,2.3-6.1,2.2-6.3c-0.1-0.2-1.6-1.3-1.6-1.4c0-0.3,0.1-0.7,0.2-1c-0.1,0-0.1-0.1-0.2-0.1c-1.3-0.8-4.7-4.4-5.1-4.9
					c-0.1,0-0.5,0-0.9-0.2c-0.2-0.1-0.5-0.3-0.9-0.6c-0.4-0.3-0.4-0.1-1.5,0.4c-1,0.5-1.1-0.4-1-0.6c0.1-0.2,1.2-0.1,1.5-0.3
					c0.4-0.2,0-0.3,0-0.3s-0.8,0.2-1.6-0.3c-0.8-0.5-0.5-1.1-0.2-0.9c0.3,0.2,1.3,0.2,1.2,0.1c0-0.1-1.1-1-1.2-1.1
					c-0.2-0.5,0.1-0.7,0.7-0.3c0.6,0.4,1,0.4,1,0.4s-1-1-0.9-1.5c0-0.5,0.4-0.4,0.7,0c0.3,0.4,1.5,1.5,1.5,1.5s0.1-0.1,0-0.6
					c-0.1-0.4,0.3-1,0.5-0.9c0.1,0.1,0.3,0.8,0.3,1c0,0.3,0.3,0.4,0.5,0.7c0.2,0.3,0.3,1.1,0.4,1.6c0,0.2,0.4,0.6,0.7,1
					c0.2,0.2,0.4,0.4,0.5,0.6l0,0c1.2,1.3,3.9,3.4,4.7,4c0.3-0.4,0.6-0.6,0.6-0.6s1.1,0.7,1.3,0.8c0.4,0.2,0.9,0.1,0.6-0.3l0,0
					c-1.7-1.2-2.8-3.1-2.8-5.3c0-0.1,0-0.3,0-0.4c0.2,0.2,0.4,0.3,0.6,0.5c0.9,0.7,1.9,1,2.7,1.1c-1.5-0.6-2.7-1.5-3.1-2.6
					c0-0.1-0.1-0.2-0.1-0.3c0,0,0,0,0,0c0,0,0-0.1,0-0.1c0,0,0,0,0,0c0-0.2,0-0.3,0-0.5c0-0.1,0-0.9,0.2-1.5
					c0.6-2.4,2.1-4.7,4.2-6.3c1.1-0.8,2.3-1.5,3.6-2C29.8,0.5,27,0,24,0C10.7,0,0,10.7,0,24c0,13.3,10.7,24,24,24
					c2.2,0,4.4-0.3,6.4-0.9c-0.1-0.7-0.2-1.4-0.3-2.2c-0.2-2.8,1.8-2.9,1.8-2.9s0.1-0.4,0.5-0.6c0.4-0.2,1.4-2.6,1.5-3.4
					c0,0,0,0,0-0.1C34,37.6,34,37.1,33.9,36.9z M19,4.6c0.4-0.2,0.8-0.5,1-1c0-0.1,0.2-0.1,0.2,0c0.2,0.4,0.5,0.8,1,1
					c0.1,0,0.1,0.2,0,0.2c-0.4,0.2-0.8,0.5-1,1c0,0.1-0.2,0.1-0.2,0c-0.2-0.4-0.5-0.8-1-1C18.9,4.8,18.9,4.6,19,4.6z M9.9,15.8
					c-1,0.4-1.7,1.1-2.1,2.1c-0.1,0.2-0.4,0.2-0.5,0c-0.4-1-1.1-1.7-2.1-2.1c-0.2-0.1-0.2-0.4,0-0.5c1-0.4,1.7-1.1,2.1-2.1
					c0.1-0.2,0.4-0.2,0.5,0c0.4,1,1.1,1.7,2.1,2.1C10.1,15.4,10.1,15.7,9.9,15.8z"/>
			</g>
			<g>
				<path class="st0" d="M43.3,9.7c0,0.2-0.1,0.3-0.1,0.5c0,0-0.1,1-0.4,0.7c0,0,0.1-1.6-0.9-1.5c0,0,0,1.3,0,1.5
					c0,0.2-0.1,1.5,0,1.9c0.1,0.4,0,1-0.3,1.3c-0.3,0.3-2.7,3.1-5.4,4.8l-0.2-0.2L35,19.6c0,0,0-0.6,0.5-1.2
					c0.5-0.7,0.5-0.5,0.5-0.5s0.5,0.6,1.1,0c0.6-0.6,0.9-1.4,0.2-2L37,15.6c0,0,0.5-0.8,0.7-2.5c0.2-0.3,0.4-0.6,0.5-0.9h0
					c0.1-0.3,0.2-0.5,0.2-0.8c0,0,0-0.7-0.1-1c0-0.1,0-0.3,0-0.4c0-0.3,0.1-0.6,0.1-0.9c0-0.1,0-0.1,0.1-0.3c0,0,0-0.1,0-0.1
					c0,0,0,0,0,0c0,0,0-0.1,0-0.1c0.3-1-0.5-1.6-0.4-1.7c0.1-0.1,0.8,0.4,0.9,0.3c0.1-0.1-0.7-1.6-0.6-1.6c0.1,0,0.6,0.6,1,1
					c0.1-0.2,0.3-0.4,0.5-0.6C41.2,7.2,42.3,8.4,43.3,9.7z"/>
			</g>
			<g>
				<path class="st0" d="M48,24c0,9.9-6,18.4-14.6,22.1c0,0,0,0,0,0c0.2-0.4,0.3-0.7-0.1-0.9c-0.3-0.2-0.5-0.7-0.2-0.9
					c0.3-0.2,0.3-0.2,0.3-0.2s0.6,0.6,1,0.4c0.4-0.2,0.3-0.8,0.3-1c0-0.2,1.7-3.1,2.1-4.3c0.4-1.1,0.2-2.6-1.2-5.5
					c-1.4-3-1.5-3-1.4-3.2c0.1-0.1,0.6,0,0.5-0.4c-1.4-6.4-0.7-7.5-0.7-7.5s2.2,0.3,2.4,0c0.2-0.3,0-1.6,0-1.6s2.2-1.5,3.3-2.6
					c1.1-1.1,3-3.3,3-3.3s1.6-0.1,2.1-0.9c0,0,0,0,0,0c0.2-0.3,0.4-0.5,0.6-0.7C47.1,16.6,48,20.2,48,24z"/>
			</g>
		</g>
	</g>
</g>
</svg>
