<?xml version="1.0" encoding="utf-8"?>
<!-- Generator: Adobe Illustrator 21.1.0, SVG Export Plug-In . SVG Version: 6.00 Build 0)  -->
<svg version="1.1" id="Слой_1" xmlns="http://www.w3.org/2000/svg" xmlns:xlink="http://www.w3.org/1999/xlink" x="0px" y="0px"
	 viewBox="0 0 128 128" style="enable-background:new 0 0 128 128;" xml:space="preserve">
<style type="text/css">
	.st0{fill:#2C3965;}
</style>
<g>
	<g>
		<g>
			<g>
				<path class="st0" d="M66.2,57L66.2,57C66.3,57,66.2,57,66.2,57z"/>
			</g>
			<g>
				<path class="st0" d="M90.5,98.3c-0.2-0.5-0.3,0.5-0.5,1.6c-1.9-2.3-8.1-9.8-9.8-10.8c-1.9-1.2-9.1-1.2-9.1-1.2
					c-0.9,0-3.2,3.1-4.1,4.5c0,0,0,0.1-0.1,0.2c0,0-0.1,0.1-0.1,0.2c-0.4,0.7-1.4,2.3-1.6,2.9c-0.2,0.6,1.3-1.3,2.2-2.2c0,0,0,0,0,0
					c0.6,0.2,1.5,0.2,1.7-0.1c0.3-0.5,1.2-2.4,3.8-1.9c2.6,0.5,4.1,5.1,3.3,13.8c-0.8,8.7-6.2,9-8.2,7.7c-2.1-1.3-0.7-3.6,0.2-5.4
					c1-1.8-0.4-2.3-0.5-2.6s0.9-0.3,0.8-1c-0.1-0.7-1.2-0.1-1-0.7c0.1-0.6-0.4-1-0.4-1s-5.5,2.6-9.3-0.3c-3.9-2.9-1.8-8.5-0.7-11.4
					c0.8-2.2,3.9-6.8,5.4-8.9c2.6,0.3,8-1.4,7.4-1.4c-2,0-6.2,0.2-6.9,0.3c-0.1,0-0.1,0-0.1,0c-0.8,0-2.8-0.3-1.5-2.2
					c1.6-2.3,6-16.3,5.9-16.9c-0.2-0.6-4.2-3.4-4.3-3.8c-0.1-0.9,0.2-1.8,0.6-2.7c-0.2-0.1-0.4-0.2-0.6-0.4
					c-3.4-2.2-12.5-11.8-13.7-13.2c-0.2,0-1.2,0-2.3-0.5c-0.6-0.3-1.4-0.7-2.4-1.6c-1-0.9-1.1-0.2-3.9,1.1c-2.8,1.3-2.9-1.1-2.6-1.6
					c0.3-0.5,3.1-0.3,4.1-0.8c1-0.6-0.1-0.8-0.1-0.8s-2.2,0.6-4.2-0.8c-2.1-1.4-1.4-2.8-0.5-2.3c0.9,0.5,3.4,0.6,3.3,0.3
					c-0.1-0.3-3-2.6-3.2-3c-0.4-1.4,0.3-1.9,1.9-0.7c1.5,1.2,2.8,1.1,2.8,1.1s-2.5-2.7-2.5-3.9c0.1-1.2,1-1,1.8,0.1
					c0.8,1.1,3.9,3.9,3.9,3.9s0.3-0.3,0.1-1.5c-0.2-1.2,0.9-2.6,1.2-2.3c0.4,0.3,0.9,2,0.9,2.8c0,0.7,0.9,1,1.4,1.7
					c0.5,0.8,0.7,2.9,1.1,4.3c0.1,0.4,1,1.6,1.9,2.6c0.5,0.6,1.1,1.2,1.5,1.5l0,0c3.2,3.5,10.4,9,12.5,10.6c0.9-1,1.7-1.7,1.7-1.7
					s3.1,1.9,3.3,2.1c1,0.6,2.5,0.1,1.5-0.9l0,0C68,47.8,65,42.6,65,36.8c0-0.4,0-0.8,0-1.2c0.5,0.5,1,0.9,1.5,1.2
					c2.5,1.8,5.2,2.6,7.2,3c-4.1-1.6-7.2-4.1-8.3-7.1c-0.1-0.3-0.2-0.5-0.3-0.8c0,0,0,0,0,0c0-0.1,0-0.2-0.1-0.3c0,0,0-0.1,0-0.1
					c-0.1-0.4-0.1-0.8-0.1-1.3c0-0.2,0-2.4,0.4-4.1C67,19.6,71,13.8,76.7,9.4c2.8-2.2,6.1-4,9.7-5.3c-7-2.6-14.5-4-22.4-4
					C28.7,0,0,28.7,0,64c0,35.3,28.7,64,64,64c5.9,0,11.7-0.8,17.1-2.3c-0.3-1.8-0.6-3.8-0.7-5.9c-0.6-7.4,4.8-7.7,4.8-7.7
					s0.2-1,1.4-1.6c1.1-0.6,3.7-6.9,4-9.2c0,0,0-0.1,0-0.2C90.6,100.4,90.7,98.9,90.5,98.3z M50.6,12.3c1.2-0.4,2.1-1.4,2.5-2.5
					c0.1-0.3,0.4-0.3,0.5,0c0.4,1.2,1.4,2.1,2.5,2.5c0.3,0.1,0.3,0.4,0,0.5c-1.2,0.4-2.1,1.4-2.5,2.5c-0.1,0.3-0.4,0.3-0.5,0
					c-0.4-1.2-1.4-2.1-2.5-2.5C50.4,12.7,50.4,12.4,50.6,12.3z M26.3,42.1c-2.6,1-4.6,3-5.6,5.6c-0.2,0.5-1,0.5-1.2,0
					c-1-2.6-3-4.6-5.6-5.6c-0.5-0.2-0.5-1,0-1.2c2.6-1,4.6-3,5.6-5.6c0.2-0.6,1-0.6,1.2,0c1,2.6,3,4.6,5.6,5.6
					C26.9,41.1,26.9,41.9,26.3,42.1z"/>
			</g>
			<g>
				<path class="st0" d="M115.5,26c-0.1,0.5-0.1,0.9-0.2,1.4c0,0-0.1,2.6-1,2c0,0,0.4-4.3-2.3-3.9c0,0,0.1,3.5,0.1,4
					c0,0.4-0.2,3.9,0,5.1c0.1,1.1,0,2.7-0.7,3.4c-0.7,0.7-7.1,8.3-14.5,12.8l-0.5-0.6l-2.9,2c0,0,0-1.5,1.4-3.3
					c1.3-1.8,1.3-1.3,1.3-1.3s1.3,1.6,2.8,0c1.5-1.7,2.3-3.8,0.5-5.4l-0.8-0.5c0,0,1.4-2.2,1.8-6.6c0.6-0.7,1-1.5,1.3-2.3h0
					c0.3-0.7,0.4-1.5,0.5-2.2c0,0-0.1-1.8-0.1-2.7c0-0.4,0-0.7,0-1.1c0.1-0.8,0.2-1.6,0.3-2.3c0-0.2,0-0.4,0.2-0.7
					c0-0.1,0-0.1,0.1-0.2c0,0,0,0,0-0.1c0-0.1,0.1-0.2,0.1-0.4c0.7-2.8-1.2-4.2-1-4.6c0.2-0.4,2.3,1,2.5,0.9c0.3-0.2-2-4.4-1.6-4.4
					c0.3,0,1.7,1.7,2.6,2.8c0.4-0.6,0.8-1.1,1.2-1.6C109.8,19.1,112.8,22.4,115.5,26z"/>
			</g>
			<g>
				<path class="st0" d="M128,64c0,26.5-16.1,49.2-39,58.9c0,0,0-0.1,0-0.1c0.4-1,0.7-2-0.2-2.4c-0.9-0.4-1.3-1.8-0.7-2.4
					c0.7-0.5,0.7-0.5,0.7-0.5s1.7,1.7,2.7,1.1c1.1-0.6,0.9-2.2,0.9-2.7c0-0.6,4.5-8.3,5.6-11.3c1.1-3,0.6-6.9-3.2-14.8
					c-3.8-7.9-4.1-8.1-3.9-8.4c0.3-0.3,1.7,0,1.5-1c-3.8-17.1-1.9-20.1-1.9-20.1s5.7,0.7,6.3,0c0.6-0.7,0.1-4.3,0.1-4.3s6-4.1,8.9-7
					c2.9-2.9,8.1-8.7,8.1-8.7s4.3-0.3,5.6-2.5c0,0,0,0,0-0.1c0.5-0.8,1-1.4,1.7-2C125.6,44.2,128,53.8,128,64z"/>
			</g>
		</g>
	</g>
</g>
</svg>
