<?xml version="1.0" encoding="utf-8"?>
<!-- Generator: Adobe Illustrator 21.1.0, SVG Export Plug-In . SVG Version: 6.00 Build 0)  -->
<svg version="1.1" id="Слой_1" xmlns="http://www.w3.org/2000/svg" xmlns:xlink="http://www.w3.org/1999/xlink" x="0px" y="0px"
	 viewBox="0 0 16 16" style="enable-background:new 0 0 16 16;" xml:space="preserve">
<style type="text/css">
	.st0{fill:#2C3965;}
</style>
<g>
	<g>
		<g>
			<g>
				<path class="st0" d="M8.3,7.1L8.3,7.1C8.3,7.1,8.3,7.1,8.3,7.1z"/>
			</g>
			<g>
				<path class="st0" d="M11.3,12.3c0-0.1,0,0.1-0.1,0.2c-0.2-0.3-1-1.2-1.2-1.4C9.8,11,8.9,11,8.9,11c-0.1,0-0.4,0.4-0.5,0.6
					c0,0,0,0,0,0c0,0,0,0,0,0c-0.1,0.1-0.2,0.3-0.2,0.4c0,0.1,0.2-0.2,0.3-0.3c0,0,0,0,0,0c0.1,0,0.2,0,0.2,0c0-0.1,0.1-0.3,0.5-0.2
					c0.3,0.1,0.5,0.6,0.4,1.7c-0.1,1.1-0.8,1.1-1,1c-0.3-0.2-0.1-0.4,0-0.7c0.1-0.2,0-0.3-0.1-0.3c0,0,0.1,0,0.1-0.1
					c0-0.1-0.1,0-0.1-0.1c0-0.1,0-0.1,0-0.1s-0.7,0.3-1.2,0c-0.5-0.4-0.2-1.1-0.1-1.4c0.1-0.3,0.5-0.8,0.7-1.1c0.3,0,1-0.2,0.9-0.2
					c-0.3,0-0.8,0-0.9,0c0,0,0,0,0,0c-0.1,0-0.3,0-0.2-0.3c0.2-0.3,0.8-2,0.7-2.1c0-0.1-0.5-0.4-0.5-0.5c0-0.1,0-0.2,0.1-0.3
					c0,0,0,0-0.1,0C7.4,6.5,6.3,5.3,6.1,5.2c0,0-0.2,0-0.3-0.1C5.8,5.1,5.7,5,5.6,4.9c-0.1-0.1-0.1,0-0.5,0.1
					C4.7,5.2,4.7,4.9,4.8,4.9c0-0.1,0.4,0,0.5-0.1c0.1-0.1,0-0.1,0-0.1S5,4.7,4.7,4.5C4.5,4.4,4.6,4.2,4.7,4.3
					c0.1,0.1,0.4,0.1,0.4,0c0,0-0.4-0.3-0.4-0.4c-0.1-0.2,0-0.2,0.2-0.1C5.1,4,5.3,4,5.3,4S4.9,3.6,5,3.5c0-0.2,0.1-0.1,0.2,0
					C5.3,3.6,5.7,4,5.7,4s0,0,0-0.2c0-0.1,0.1-0.3,0.2-0.3c0,0,0.1,0.3,0.1,0.3c0,0.1,0.1,0.1,0.2,0.2c0.1,0.1,0.1,0.4,0.1,0.5
					c0,0.1,0.1,0.2,0.2,0.3C6.6,5,6.6,5.1,6.7,5.1l0,0C7.1,5.5,8,6.2,8.2,6.4c0.1-0.1,0.2-0.2,0.2-0.2s0.4,0.2,0.4,0.3
					c0.1,0.1,0.3,0,0.2-0.1l0,0C8.5,6,8.1,5.3,8.1,4.6c0,0,0-0.1,0-0.1c0.1,0.1,0.1,0.1,0.2,0.2C8.6,4.8,9,4.9,9.2,5
					c-0.5-0.2-0.9-0.5-1-0.9c0,0,0-0.1,0-0.1c0,0,0,0,0,0c0,0,0,0,0,0c0,0,0,0,0,0c0-0.1,0-0.1,0-0.2c0,0,0-0.3,0.1-0.5
					c0.2-0.8,0.7-1.6,1.4-2.1c0.4-0.3,0.8-0.5,1.2-0.7C9.9,0.2,9,0,8,0C3.6,0,0,3.6,0,8c0,4.4,3.6,8,8,8c0.7,0,1.5-0.1,2.1-0.3
					c0-0.2-0.1-0.5-0.1-0.7c-0.1-0.9,0.6-1,0.6-1s0-0.1,0.2-0.2c0.1-0.1,0.5-0.9,0.5-1.1c0,0,0,0,0,0C11.3,12.5,11.3,12.4,11.3,12.3
					z M6.3,1.5c0.1-0.1,0.3-0.2,0.3-0.3c0,0,0.1,0,0.1,0C6.8,1.4,6.9,1.5,7,1.5c0,0,0,0.1,0,0.1C6.9,1.7,6.8,1.8,6.7,1.9
					c0,0-0.1,0-0.1,0C6.6,1.8,6.5,1.7,6.3,1.5C6.3,1.6,6.3,1.5,6.3,1.5z M3.3,5.3C3,5.4,2.7,5.6,2.6,6C2.6,6,2.5,6,2.4,6
					C2.3,5.6,2.1,5.4,1.7,5.3c-0.1,0-0.1-0.1,0-0.2C2.1,5,2.3,4.7,2.4,4.4c0-0.1,0.1-0.1,0.2,0C2.7,4.7,3,5,3.3,5.1
					C3.4,5.1,3.4,5.2,3.3,5.3z"/>
			</g>
			<g>
				<path class="st0" d="M14.4,3.2c0,0.1,0,0.1,0,0.2c0,0,0,0.3-0.1,0.2c0,0,0-0.5-0.3-0.5c0,0,0,0.4,0,0.5c0,0.1,0,0.5,0,0.6
					c0,0.1,0,0.3-0.1,0.4c-0.1,0.1-0.9,1-1.8,1.6L12,6.3l-0.4,0.2c0,0,0-0.2,0.2-0.4C12,5.9,12,5.9,12,5.9s0.2,0.2,0.4,0
					c0.2-0.2,0.3-0.5,0.1-0.7l-0.1-0.1c0,0,0.2-0.3,0.2-0.8c0.1-0.1,0.1-0.2,0.2-0.3h0c0-0.1,0.1-0.2,0.1-0.3c0,0,0-0.2,0-0.3
					c0,0,0-0.1,0-0.1c0-0.1,0-0.2,0-0.3c0,0,0,0,0-0.1c0,0,0,0,0,0c0,0,0,0,0,0c0,0,0,0,0,0c0.1-0.3-0.2-0.5-0.1-0.6
					c0,0,0.3,0.1,0.3,0.1c0,0-0.2-0.5-0.2-0.5c0,0,0.2,0.2,0.3,0.3c0-0.1,0.1-0.1,0.2-0.2C13.7,2.4,14.1,2.8,14.4,3.2z"/>
			</g>
			<g>
				<path class="st0" d="M16,8c0,3.3-2,6.1-4.9,7.4c0,0,0,0,0,0c0.1-0.1,0.1-0.2,0-0.3C11,15,10.9,14.8,11,14.8
					c0.1-0.1,0.1-0.1,0.1-0.1s0.2,0.2,0.3,0.1c0.1-0.1,0.1-0.3,0.1-0.3c0-0.1,0.6-1,0.7-1.4c0.1-0.4,0.1-0.9-0.4-1.8
					c-0.5-1-0.5-1-0.5-1.1c0,0,0.2,0,0.2-0.1c-0.5-2.1-0.2-2.5-0.2-2.5s0.7,0.1,0.8,0c0.1-0.1,0-0.5,0-0.5s0.7-0.5,1.1-0.9
					c0.4-0.4,1-1.1,1-1.1s0.5,0,0.7-0.3c0,0,0,0,0,0c0.1-0.1,0.1-0.2,0.2-0.2C15.7,5.5,16,6.7,16,8z"/>
			</g>
		</g>
	</g>
</g>
</svg>
